<svg width="32" height="21" viewBox="0 0 32 21" fill="none" xmlns="http://www.w3.org/2000/svg">
<path d="M31.4482 20.9997H0.551749C0.247062 20.9997 0 20.7522 0 20.447V0.552647C0 0.247464 0.247062 6.11344e-08 0.551749 6.11344e-08H31.4483C31.7529 6.11344e-08 32 0.247464 32 0.552647V20.447C31.9999 20.7523 31.7529 20.9997 31.4482 20.9997Z" fill="#F5F5F5"/>
<path d="M31.9999 1.61544H0V0.552647C0 0.247464 0.247062 6.11344e-08 0.551749 6.11344e-08H31.4483C31.7529 6.11344e-08 32 0.247464 32 0.552647L31.9999 1.61544Z" fill="#FF4B55"/>
<path d="M31.9999 0H0V1.61537H31.9999V0Z" transform="translate(0 6.46191)" fill="#FF4B55"/>
<path d="M31.9999 0H0V1.61537H31.9999V0Z" transform="translate(0 3.23047)" fill="#FF4B55"/>
<path d="M31.9999 1.61544H0.551749C0.247062 1.61544 0 1.36797 0 1.06279V4.50866e-07H31.9999V1.61544Z" transform="translate(0 9.69238)" fill="#FF4B55"/>
<path d="M31.9999 0H0V1.61537H31.9999V0Z" transform="translate(0 16.1553)" fill="#FF4B55"/>
<path d="M31.4482 1.61537H0.551749C0.247062 1.61537 0 1.36791 0 1.06273V-6.26628e-07H31.9999V1.06279C31.9999 1.36797 31.7529 1.61537 31.4482 1.61537Z" transform="translate(0 19.3848)" fill="#FF4B55"/>
<path d="M31.9999 0H0V1.61537H31.9999V0Z" transform="translate(0 12.9229)" fill="#FF4B55"/>
<path d="M14.3448 2.67463e-08H0.551749C0.247062 2.67463e-08 0 0.247401 0 0.552585V10.7548C0 11.06 0.247062 11.3074 0.551749 11.3074H14.3448C14.6495 11.3074 14.8966 11.06 14.8966 10.7548V0.552585C14.8965 0.247401 14.6495 2.67463e-08 14.3448 2.67463e-08Z" transform="translate(0 0.00195312)" fill="#41479B"/>
<path d="M0.658521 0.0356283L0.780646 0.402474L1.16671 0.405416C1.21671 0.405854 1.2374 0.469708 1.19721 0.499444L0.886646 0.729192L1.00315 1.09785C1.01827 1.14556 0.963958 1.18512 0.923271 1.15595L0.609209 0.931145L0.295147 1.15601C0.254459 1.18512 0.200272 1.14562 0.215272 1.09792L0.331772 0.729254L0.0212099 0.499506C-0.0189775 0.469708 0.00170992 0.405917 0.0517098 0.405479L0.437772 0.402537L0.559896 0.0356909C0.575646 -0.0118864 0.642646 -0.0118864 0.658521 0.0356283Z" transform="translate(0.891113 1.23145)" fill="#F5F5F5"/>
<path d="M0.658521 0.0355813L0.780646 0.402427L1.16671 0.405369C1.21671 0.405807 1.2374 0.469661 1.19721 0.499397L0.886646 0.729145L1.00315 1.09781C1.01827 1.14551 0.963958 1.18507 0.923271 1.1559L0.609209 0.931097L0.295147 1.15596C0.254459 1.18507 0.200272 1.14557 0.215272 1.09787L0.331772 0.729208L0.0212099 0.49946C-0.0189775 0.469661 0.00170992 0.40587 0.0517098 0.405432L0.437772 0.402489L0.559896 0.0356434C0.575646 -0.0118713 0.642646 -0.0118708 0.658521 0.0355813Z" transform="translate(0.890625 3.15137)" fill="#F5F5F5"/>
<path d="M0.658521 0.0355808L0.780646 0.402426L1.16671 0.40537C1.21671 0.405808 1.2374 0.469661 1.19721 0.499397L0.886646 0.729145L1.00315 1.09781C1.01827 1.14551 0.963958 1.18507 0.923271 1.1559L0.609209 0.931098L0.295147 1.15596C0.254459 1.18507 0.200272 1.14557 0.215272 1.09787L0.331772 0.729207L0.0212099 0.499459C-0.0189775 0.469661 0.00170992 0.40587 0.0517098 0.405432L0.437772 0.40249L0.559896 0.0356438C0.575646 -0.0118708 0.642646 -0.0118713 0.658521 0.0355808Z" transform="translate(0.890625 5.06934)" fill="#F5F5F5"/>
<path d="M0.658521 0.0356286L0.780646 0.402473L1.16671 0.405416C1.21671 0.405855 1.2374 0.469708 1.19721 0.499444L0.886646 0.729192L1.00315 1.09785C1.01827 1.14556 0.963958 1.18512 0.923271 1.15595L0.609209 0.931145L0.295147 1.15601C0.254459 1.18512 0.200272 1.14562 0.215272 1.09792L0.331772 0.729254L0.0212099 0.499506C-0.0189775 0.469708 0.00170992 0.405917 0.0517098 0.405479L0.437772 0.402536L0.559896 0.0356907C0.575646 -0.0118866 0.642646 -0.011886 0.658521 0.0356286Z" transform="translate(0.890625 6.98926)" fill="#F5F5F5"/>
<path d="M0.658521 0.035675L0.780646 0.402521L1.16671 0.405463C1.21671 0.405901 1.2374 0.469755 1.19721 0.49949L0.886646 0.729238L1.00315 1.0979C1.01827 1.1456 0.963958 1.18517 0.923271 1.15599L0.609209 0.931192L0.295147 1.15606C0.254459 1.18517 0.200272 1.14566 0.215272 1.09796L0.331772 0.729301L0.0212099 0.499554C-0.0189775 0.469755 0.00170992 0.405964 0.0517098 0.405526L0.437772 0.402584L0.559896 0.0357381C0.575646 -0.0119018 0.642646 -0.0119022 0.658521 0.035675Z" transform="translate(0.890625 8.90723)" fill="#F5F5F5"/>
<path d="M0.658521 0.0355891L0.780646 0.402435L1.16671 0.405377C1.21671 0.405815 1.2374 0.469669 1.19721 0.499405L0.886646 0.729152L1.00315 1.09781C1.01827 1.14552 0.963958 1.18508 0.923271 1.15591L0.609209 0.931043L0.295147 1.15591C0.25446 1.18502 0.200272 1.14552 0.215272 1.09781L0.331772 0.729152L0.0212098 0.499405C-0.0189776 0.469606 0.00170999 0.405815 0.0517099 0.405377L0.437771 0.402435L0.559896 0.0355891C0.575584 -0.0118629 0.642709 -0.0118629 0.658521 0.0355891Z" transform="translate(2.37793 2.17285)" fill="#F5F5F5"/>
<path d="M0.658521 0.035636L0.780646 0.402482L1.16671 0.405424C1.21671 0.405862 1.2374 0.469716 1.19721 0.499451L0.886646 0.729199L1.00315 1.09786C1.01827 1.14556 0.963958 1.18513 0.923271 1.15595L0.609209 0.93109L0.295147 1.15595C0.25446 1.18506 0.200272 1.14563 0.215272 1.09786L0.331772 0.729199L0.0212098 0.499451C-0.0189776 0.469653 0.00170999 0.405862 0.0517099 0.405424L0.437771 0.402482L0.559896 0.035636C0.575584 -0.0118787 0.642709 -0.0118787 0.658521 0.035636Z" transform="translate(2.37793 4.09277)" fill="#F5F5F5"/>
<path d="M0.658521 0.0356364L0.780646 0.402481L1.16671 0.405424C1.21671 0.405862 1.2374 0.469716 1.19721 0.499452L0.886646 0.7292L1.00315 1.09786C1.01827 1.14556 0.963958 1.18513 0.923271 1.15596L0.609209 0.93109L0.295147 1.15596C0.25446 1.18507 0.200272 1.14556 0.215272 1.09786L0.331772 0.7292L0.0212098 0.499452C-0.0189776 0.469653 0.00170999 0.405862 0.0517099 0.405424L0.437771 0.402481L0.559896 0.0356364C0.575584 -0.0118782 0.642709 -0.0118782 0.658521 0.0356364Z" transform="translate(2.37793 6.01172)" fill="#F5F5F5"/>
<path d="M0.658521 0.035589L0.780646 0.402435L1.16671 0.405377C1.21671 0.405815 1.2374 0.469669 1.19721 0.499404L0.886646 0.729152L1.00315 1.09781C1.01827 1.14552 0.963958 1.18508 0.923271 1.15591L0.609209 0.931043L0.295147 1.15591C0.25446 1.18502 0.200272 1.14552 0.215272 1.09781L0.331772 0.729152L0.0212098 0.499404C-0.0189776 0.469606 0.00170999 0.405815 0.0517099 0.405377L0.437771 0.402435L0.559896 0.035589C0.575584 -0.0118631 0.642709 -0.0118631 0.658521 0.035589Z" transform="translate(2.37793 7.93066)" fill="#F5F5F5"/>
<path d="M0.658521 0.0356361L0.780646 0.402482L1.16671 0.405424C1.21671 0.405862 1.2374 0.469716 1.19721 0.499452L0.886646 0.729199L1.00315 1.09786C1.01827 1.14556 0.963958 1.18513 0.923271 1.15595L0.609209 0.93109L0.295147 1.15595C0.254459 1.18506 0.200272 1.14556 0.215272 1.09786L0.331772 0.729199L0.02121 0.499452C-0.0189775 0.469653 0.00170994 0.405862 0.0517098 0.405424L0.437772 0.402482L0.559896 0.0356361C0.575646 -0.0118785 0.642709 -0.0118785 0.658521 0.0356361Z" transform="translate(3.86475 1.23145)" fill="#F5F5F5"/>
<path d="M0.658521 0.0355891L0.780646 0.402435L1.16671 0.405377C1.21671 0.405815 1.2374 0.469669 1.19721 0.499405L0.886646 0.729152L1.00315 1.09781C1.01827 1.14552 0.963958 1.18508 0.923271 1.15591L0.609209 0.931043L0.295147 1.15591C0.254459 1.18502 0.200272 1.14552 0.215272 1.09781L0.331772 0.729152L0.02121 0.499405C-0.0189775 0.469606 0.00170994 0.405815 0.0517098 0.405377L0.437772 0.402435L0.559896 0.0355891C0.575646 -0.0118629 0.642709 -0.0118629 0.658521 0.0355891Z" transform="translate(3.86475 3.15137)" fill="#F5F5F5"/>
<path d="M0.658521 0.0355886L0.780646 0.402434L1.16671 0.405377C1.21671 0.405816 1.2374 0.469669 1.19721 0.499405L0.886646 0.729153L1.00315 1.09781C1.01827 1.14552 0.963958 1.18508 0.923271 1.15591L0.609209 0.931043L0.295147 1.15591C0.254459 1.18502 0.200272 1.14552 0.215272 1.09781L0.331772 0.729153L0.02121 0.499405C-0.0189775 0.469607 0.00170994 0.405816 0.0517098 0.405377L0.437772 0.402434L0.559896 0.0355886C0.575646 -0.0118634 0.642709 -0.0118634 0.658521 0.0355886Z" transform="translate(3.86475 5.06934)" fill="#F5F5F5"/>
<path d="M0.658521 0.0356364L0.780646 0.402481L1.16671 0.405424C1.21671 0.405862 1.2374 0.469716 1.19721 0.499452L0.886646 0.7292L1.00315 1.09786C1.01827 1.14556 0.963958 1.18513 0.923271 1.15596L0.609209 0.93109L0.295147 1.15596C0.254459 1.18507 0.200272 1.14556 0.215272 1.09786L0.331772 0.7292L0.02121 0.499452C-0.0189775 0.469653 0.00170994 0.405862 0.0517098 0.405424L0.437772 0.402481L0.559896 0.0356364C0.575646 -0.0118782 0.642709 -0.0118782 0.658521 0.0356364Z" transform="translate(3.86475 6.98926)" fill="#F5F5F5"/>
<path d="M0.658521 0.0356829L0.780646 0.402529L1.16671 0.405471C1.21671 0.405909 1.2374 0.469762 1.19721 0.499498L0.886646 0.729246L1.00315 1.09791C1.01827 1.14561 0.963958 1.18517 0.923271 1.156L0.609209 0.931137L0.295147 1.156C0.254459 1.18511 0.200272 1.14561 0.215272 1.09791L0.331772 0.729246L0.02121 0.499498C-0.0189775 0.4697 0.00170994 0.405909 0.0517098 0.405471L0.437772 0.402529L0.559896 0.0356829C0.575646 -0.0118944 0.642709 -0.0118944 0.658521 0.0356829Z" transform="translate(3.86475 8.90723)" fill="#F5F5F5"/>
<path d="M0.658521 0.0355891L0.780646 0.402435L1.16671 0.405377C1.21671 0.405815 1.2374 0.469669 1.19721 0.499405L0.886646 0.729152L1.00315 1.09781C1.01827 1.14552 0.963958 1.18508 0.923271 1.15591L0.609209 0.931043L0.295147 1.15591C0.25446 1.18502 0.200272 1.14552 0.215272 1.09781L0.331772 0.729152L0.0212099 0.499405C-0.0189775 0.469606 0.00170986 0.405815 0.0517098 0.405377L0.437772 0.402435L0.559897 0.0355891C0.575584 -0.0118629 0.642709 -0.0118629 0.658521 0.0355891Z" transform="translate(5.35205 2.17285)" fill="#F5F5F5"/>
<path d="M0.658521 0.035636L0.780646 0.402482L1.16671 0.405424C1.21671 0.405862 1.2374 0.469716 1.19721 0.499451L0.886646 0.729199L1.00315 1.09786C1.01827 1.14556 0.963958 1.18513 0.923271 1.15595L0.609209 0.93109L0.295147 1.15595C0.25446 1.18506 0.200272 1.14563 0.215272 1.09786L0.331772 0.729199L0.0212099 0.499451C-0.0189775 0.469653 0.00170986 0.405862 0.0517098 0.405424L0.437772 0.402482L0.559897 0.035636C0.575584 -0.0118787 0.642709 -0.0118787 0.658521 0.035636Z" transform="translate(5.35205 4.09277)" fill="#F5F5F5"/>
<path d="M0.658521 0.0356364L0.780646 0.402481L1.16671 0.405424C1.21671 0.405862 1.2374 0.469716 1.19721 0.499452L0.886646 0.7292L1.00315 1.09786C1.01827 1.14556 0.963958 1.18513 0.923271 1.15596L0.609209 0.93109L0.295147 1.15596C0.25446 1.18507 0.200272 1.14556 0.215272 1.09786L0.331772 0.7292L0.0212099 0.499452C-0.0189775 0.469653 0.00170986 0.405862 0.0517098 0.405424L0.437772 0.402481L0.559897 0.0356364C0.575584 -0.0118782 0.642709 -0.0118782 0.658521 0.0356364Z" transform="translate(5.35205 6.01172)" fill="#F5F5F5"/>
<path d="M0.658521 0.035589L0.780646 0.402435L1.16671 0.405377C1.21671 0.405815 1.2374 0.469669 1.19721 0.499404L0.886646 0.729152L1.00315 1.09781C1.01827 1.14552 0.963958 1.18508 0.923271 1.15591L0.609209 0.931043L0.295147 1.15591C0.25446 1.18502 0.200272 1.14552 0.215272 1.09781L0.331772 0.729152L0.0212099 0.499404C-0.0189775 0.469606 0.00170986 0.405815 0.0517098 0.405377L0.437772 0.402435L0.559897 0.035589C0.575584 -0.0118631 0.642709 -0.0118631 0.658521 0.035589Z" transform="translate(5.35205 7.93066)" fill="#F5F5F5"/>
<path d="M0.658583 0.0356361L0.780708 0.402482L1.16677 0.405424C1.21677 0.405862 1.23746 0.469716 1.19727 0.499452L0.886708 0.729199L1.00321 1.09786C1.01833 1.14556 0.96402 1.18513 0.923333 1.15595L0.609209 0.93109L0.295147 1.15595C0.25446 1.18506 0.200272 1.14556 0.215272 1.09786L0.331772 0.729199L0.0212099 0.499452C-0.0189775 0.469653 0.00170985 0.405862 0.0517098 0.405424L0.437772 0.402482L0.559897 0.0356361C0.575709 -0.0118785 0.642771 -0.0118785 0.658583 0.0356361Z" transform="translate(6.83887 1.23145)" fill="#F5F5F5"/>
<path d="M0.658583 0.0355891L0.780708 0.402435L1.16677 0.405377C1.21677 0.405815 1.23746 0.469669 1.19727 0.499405L0.886708 0.729152L1.00321 1.09781C1.01833 1.14552 0.96402 1.18508 0.923333 1.15591L0.609209 0.931043L0.295147 1.15591C0.25446 1.18502 0.200272 1.14552 0.215272 1.09781L0.331772 0.729152L0.0212099 0.499405C-0.0189775 0.469606 0.00170985 0.405815 0.0517098 0.405377L0.437772 0.402435L0.559897 0.0355891C0.575709 -0.0118629 0.642771 -0.0118629 0.658583 0.0355891Z" transform="translate(6.83887 3.15137)" fill="#F5F5F5"/>
<path d="M0.658583 0.0355886L0.780708 0.402434L1.16677 0.405377C1.21677 0.405816 1.23746 0.469669 1.19727 0.499405L0.886708 0.729153L1.00321 1.09781C1.01833 1.14552 0.96402 1.18508 0.923333 1.15591L0.609209 0.931043L0.295147 1.15591C0.25446 1.18502 0.200272 1.14552 0.215272 1.09781L0.331772 0.729153L0.0212099 0.499405C-0.0189775 0.469607 0.00170985 0.405816 0.0517098 0.405377L0.437772 0.402434L0.559897 0.0355886C0.575709 -0.0118634 0.642771 -0.0118634 0.658583 0.0355886Z" transform="translate(6.83887 5.06934)" fill="#F5F5F5"/>
<path d="M0.658583 0.0356364L0.780708 0.402481L1.16677 0.405424C1.21677 0.405862 1.23746 0.469716 1.19727 0.499452L0.886708 0.7292L1.00321 1.09786C1.01833 1.14556 0.96402 1.18513 0.923333 1.15596L0.609209 0.93109L0.295147 1.15596C0.25446 1.18507 0.200272 1.14556 0.215272 1.09786L0.331772 0.7292L0.0212099 0.499452C-0.0189775 0.469653 0.00170985 0.405862 0.0517098 0.405424L0.437772 0.402481L0.559897 0.0356364C0.575709 -0.0118782 0.642771 -0.0118782 0.658583 0.0356364Z" transform="translate(6.83887 6.98926)" fill="#F5F5F5"/>
<path d="M0.658583 0.0356829L0.780708 0.402529L1.16677 0.405471C1.21677 0.405909 1.23746 0.469762 1.19727 0.499498L0.886708 0.729246L1.00321 1.09791C1.01833 1.14561 0.96402 1.18517 0.923333 1.156L0.609209 0.931137L0.295147 1.156C0.25446 1.18511 0.200272 1.14561 0.215272 1.09791L0.331772 0.729246L0.0212099 0.499498C-0.0189775 0.4697 0.00170985 0.405909 0.0517098 0.405471L0.437772 0.402529L0.559897 0.0356829C0.575709 -0.0118944 0.642771 -0.0118944 0.658583 0.0356829Z" transform="translate(6.83887 8.90723)" fill="#F5F5F5"/>
<path d="M0.658521 0.0355891L0.780646 0.402435L1.16671 0.405377C1.21671 0.405815 1.23739 0.469669 1.19721 0.499405L0.886646 0.729152L1.00315 1.09781C1.01827 1.14552 0.963958 1.18508 0.92327 1.15591L0.609209 0.931043L0.295146 1.15591C0.254459 1.18502 0.200272 1.14552 0.215272 1.09781L0.331771 0.729152L0.0212098 0.499405C-0.0189776 0.469606 0.00171025 0.405815 0.0517102 0.405377L0.437772 0.402435L0.559896 0.0355891C0.575709 -0.0118629 0.642709 -0.0118629 0.658521 0.0355891Z" transform="translate(8.32617 2.17285)" fill="#F5F5F5"/>
<path d="M0.658521 0.035636L0.780646 0.402482L1.16671 0.405424C1.21671 0.405862 1.23739 0.469716 1.19721 0.499451L0.886646 0.729199L1.00315 1.09786C1.01827 1.14556 0.963958 1.18513 0.92327 1.15595L0.609209 0.93109L0.295146 1.15595C0.254459 1.18506 0.200272 1.14563 0.215272 1.09786L0.331771 0.729199L0.0212098 0.499451C-0.0189776 0.469653 0.00171025 0.405862 0.0517102 0.405424L0.437772 0.402482L0.559896 0.035636C0.575709 -0.0118787 0.642709 -0.0118787 0.658521 0.035636Z" transform="translate(8.32617 4.09277)" fill="#F5F5F5"/>
<path d="M0.658521 0.0356364L0.780646 0.402481L1.16671 0.405424C1.21671 0.405862 1.23739 0.469716 1.19721 0.499452L0.886646 0.7292L1.00315 1.09786C1.01827 1.14556 0.963958 1.18513 0.92327 1.15596L0.609209 0.93109L0.295146 1.15596C0.254459 1.18507 0.200272 1.14556 0.215272 1.09786L0.331771 0.7292L0.0212098 0.499452C-0.0189776 0.469653 0.00171025 0.405862 0.0517102 0.405424L0.437772 0.402481L0.559896 0.0356364C0.575709 -0.0118782 0.642709 -0.0118782 0.658521 0.0356364Z" transform="translate(8.32617 6.01172)" fill="#F5F5F5"/>
<path d="M0.658521 0.035589L0.780646 0.402435L1.16671 0.405377C1.21671 0.405815 1.23739 0.469669 1.19721 0.499404L0.886646 0.729152L1.00315 1.09781C1.01827 1.14552 0.963958 1.18508 0.92327 1.15591L0.609209 0.931043L0.295146 1.15591C0.254459 1.18502 0.200272 1.14552 0.215272 1.09781L0.331771 0.729152L0.0212098 0.499404C-0.0189776 0.469606 0.00171025 0.405815 0.0517102 0.405377L0.437772 0.402435L0.559896 0.035589C0.575709 -0.0118631 0.642709 -0.0118631 0.658521 0.035589Z" transform="translate(8.32617 7.93066)" fill="#F5F5F5"/>
<path d="M0.658521 0.0356361L0.780646 0.402482L1.16671 0.405424C1.21671 0.405862 1.23739 0.469716 1.19721 0.499452L0.886646 0.729199L1.00315 1.09786C1.01827 1.14556 0.963958 1.18513 0.923271 1.15595L0.609208 0.93109L0.295147 1.15595C0.254459 1.18506 0.200272 1.14556 0.215272 1.09786L0.331772 0.729199L0.0212102 0.499452C-0.0189772 0.469653 0.00170969 0.405862 0.0517096 0.405424L0.437771 0.402482L0.559896 0.0356361C0.575583 -0.0118785 0.642708 -0.0118785 0.658521 0.0356361Z" transform="translate(9.81299 1.23145)" fill="#F5F5F5"/>
<path d="M0.658521 0.0355891L0.780646 0.402435L1.16671 0.405377C1.21671 0.405815 1.23739 0.469669 1.19721 0.499405L0.886646 0.729152L1.00315 1.09781C1.01827 1.14552 0.963958 1.18508 0.923271 1.15591L0.609208 0.931043L0.295147 1.15591C0.254459 1.18502 0.200272 1.14552 0.215272 1.09781L0.331772 0.729152L0.0212102 0.499405C-0.0189772 0.469606 0.00170969 0.405815 0.0517096 0.405377L0.437771 0.402435L0.559896 0.0355891C0.575583 -0.0118629 0.642708 -0.0118629 0.658521 0.0355891Z" transform="translate(9.81299 3.15137)" fill="#F5F5F5"/>
<path d="M0.658521 0.0355886L0.780646 0.402434L1.16671 0.405377C1.21671 0.405816 1.23739 0.469669 1.19721 0.499405L0.886646 0.729153L1.00315 1.09781C1.01827 1.14552 0.963958 1.18508 0.923271 1.15591L0.609208 0.931043L0.295147 1.15591C0.254459 1.18502 0.200272 1.14552 0.215272 1.09781L0.331772 0.729153L0.0212102 0.499405C-0.0189772 0.469607 0.00170969 0.405816 0.0517096 0.405377L0.437771 0.402434L0.559896 0.0355886C0.575583 -0.0118634 0.642708 -0.0118634 0.658521 0.0355886Z" transform="translate(9.81299 5.06934)" fill="#F5F5F5"/>
<path d="M0.658521 0.0356364L0.780646 0.402481L1.16671 0.405424C1.21671 0.405862 1.23739 0.469716 1.19721 0.499452L0.886646 0.7292L1.00315 1.09786C1.01827 1.14556 0.963958 1.18513 0.923271 1.15596L0.609208 0.93109L0.295147 1.15596C0.254459 1.18507 0.200272 1.14556 0.215272 1.09786L0.331772 0.7292L0.0212102 0.499452C-0.0189772 0.469653 0.00170969 0.405862 0.0517096 0.405424L0.437771 0.402481L0.559896 0.0356364C0.575583 -0.0118782 0.642708 -0.0118782 0.658521 0.0356364Z" transform="translate(9.81299 6.98926)" fill="#F5F5F5"/>
<path d="M0.658521 0.0356829L0.780646 0.402529L1.16671 0.405471C1.21671 0.405909 1.23739 0.469762 1.19721 0.499498L0.886646 0.729246L1.00315 1.09791C1.01827 1.14561 0.963958 1.18517 0.923271 1.156L0.609208 0.931137L0.295147 1.156C0.254459 1.18511 0.200272 1.14561 0.215272 1.09791L0.331772 0.729246L0.0212102 0.499498C-0.0189772 0.4697 0.00170969 0.405909 0.0517096 0.405471L0.437771 0.402529L0.559896 0.0356829C0.575583 -0.0118944 0.642708 -0.0118944 0.658521 0.0356829Z" transform="translate(9.81299 8.90723)" fill="#F5F5F5"/>
<path d="M0.658521 0.0355891L0.780646 0.402435L1.16671 0.405377C1.21671 0.405815 1.23739 0.469669 1.19721 0.499405L0.886646 0.729152L1.00315 1.09781C1.01827 1.14552 0.963958 1.18508 0.923271 1.15591L0.609208 0.931043L0.295147 1.15591C0.254459 1.18502 0.200272 1.14552 0.215272 1.09781L0.331772 0.729152L0.0212101 0.499405C-0.0189773 0.469606 0.00170964 0.405815 0.0517095 0.405377L0.437771 0.402435L0.559897 0.0355891C0.575647 -0.0118629 0.642771 -0.0118629 0.658521 0.0355891Z" transform="translate(11.2998 2.17285)" fill="#F5F5F5"/>
<path d="M0.658521 0.035636L0.780646 0.402482L1.16671 0.405424C1.21671 0.405862 1.23739 0.469716 1.19721 0.499451L0.886646 0.729199L1.00315 1.09786C1.01827 1.14556 0.963958 1.18513 0.923271 1.15595L0.609208 0.93109L0.295147 1.15595C0.254459 1.18506 0.200272 1.14563 0.215272 1.09786L0.331772 0.729199L0.0212101 0.499451C-0.0189773 0.469653 0.00170964 0.405862 0.0517095 0.405424L0.437771 0.402482L0.559897 0.035636C0.575647 -0.0118787 0.642771 -0.0118787 0.658521 0.035636Z" transform="translate(11.2998 4.09277)" fill="#F5F5F5"/>
<path d="M0.658521 0.0356364L0.780646 0.402481L1.16671 0.405424C1.21671 0.405862 1.23739 0.469716 1.19721 0.499452L0.886646 0.7292L1.00315 1.09786C1.01827 1.14556 0.963958 1.18513 0.923271 1.15596L0.609208 0.93109L0.295147 1.15596C0.254459 1.18507 0.200272 1.14556 0.215272 1.09786L0.331772 0.7292L0.0212101 0.499452C-0.0189773 0.469653 0.00170964 0.405862 0.0517095 0.405424L0.437771 0.402481L0.559897 0.0356364C0.575647 -0.0118782 0.642771 -0.0118782 0.658521 0.0356364Z" transform="translate(11.2998 6.01172)" fill="#F5F5F5"/>
<path d="M0.658521 0.035589L0.780646 0.402435L1.16671 0.405377C1.21671 0.405815 1.23739 0.469669 1.19721 0.499404L0.886646 0.729152L1.00315 1.09781C1.01827 1.14552 0.963958 1.18508 0.923271 1.15591L0.609208 0.931043L0.295147 1.15591C0.254459 1.18502 0.200272 1.14552 0.215272 1.09781L0.331772 0.729152L0.0212101 0.499404C-0.0189773 0.469606 0.00170964 0.405815 0.0517095 0.405377L0.437771 0.402435L0.559897 0.035589C0.575647 -0.0118631 0.642771 -0.0118631 0.658521 0.035589Z" transform="translate(11.2998 7.93066)" fill="#F5F5F5"/>
<path d="M0.658521 0.0356361L0.780646 0.402482L1.16671 0.405424C1.21671 0.405862 1.2374 0.469716 1.19721 0.499452L0.886645 0.729199L1.00315 1.09786C1.01827 1.14556 0.963958 1.18513 0.92327 1.15595L0.609209 0.93109L0.295147 1.15595C0.25446 1.18506 0.200272 1.14556 0.215272 1.09786L0.331772 0.729199L0.0212096 0.499452C-0.0189778 0.469653 0.00171004 0.405862 0.0517099 0.405424L0.437772 0.402482L0.559896 0.0356361C0.575646 -0.0118785 0.642646 -0.0118785 0.658521 0.0356361Z" transform="translate(12.7876 1.23145)" fill="#F5F5F5"/>
<path d="M0.658521 0.0355891L0.780646 0.402435L1.16671 0.405377C1.21671 0.405815 1.2374 0.469669 1.19721 0.499405L0.886645 0.729152L1.00315 1.09781C1.01827 1.14552 0.963958 1.18508 0.92327 1.15591L0.609209 0.931043L0.295147 1.15591C0.25446 1.18502 0.200272 1.14552 0.215272 1.09781L0.331772 0.729152L0.0212096 0.499405C-0.0189778 0.469606 0.00171004 0.405815 0.0517099 0.405377L0.437772 0.402435L0.559896 0.0355891C0.575646 -0.0118629 0.642646 -0.0118629 0.658521 0.0355891Z" transform="translate(12.7876 3.15137)" fill="#F5F5F5"/>
<path d="M0.658521 0.0355886L0.780646 0.402434L1.16671 0.405377C1.21671 0.405816 1.2374 0.469669 1.19721 0.499405L0.886645 0.729153L1.00315 1.09781C1.01827 1.14552 0.963958 1.18508 0.92327 1.15591L0.609209 0.931043L0.295147 1.15591C0.25446 1.18502 0.200272 1.14552 0.215272 1.09781L0.331772 0.729153L0.0212096 0.499405C-0.0189778 0.469607 0.00171004 0.405816 0.0517099 0.405377L0.437772 0.402434L0.559896 0.0355886C0.575646 -0.0118634 0.642646 -0.0118634 0.658521 0.0355886Z" transform="translate(12.7876 5.06934)" fill="#F5F5F5"/>
<path d="M0.658521 0.0356364L0.780646 0.402481L1.16671 0.405424C1.21671 0.405862 1.2374 0.469716 1.19721 0.499452L0.886645 0.7292L1.00315 1.09786C1.01827 1.14556 0.963958 1.18513 0.92327 1.15596L0.609209 0.93109L0.295147 1.15596C0.25446 1.18507 0.200272 1.14556 0.215272 1.09786L0.331772 0.7292L0.0212096 0.499452C-0.0189778 0.469653 0.00171004 0.405862 0.0517099 0.405424L0.437772 0.402481L0.559896 0.0356364C0.575646 -0.0118782 0.642646 -0.0118782 0.658521 0.0356364Z" transform="translate(12.7876 6.98926)" fill="#F5F5F5"/>
<path d="M0.658521 0.0356829L0.780646 0.402529L1.16671 0.405471C1.21671 0.405909 1.2374 0.469762 1.19721 0.499498L0.886645 0.729246L1.00315 1.09791C1.01827 1.14561 0.963958 1.18517 0.92327 1.156L0.609209 0.931137L0.295147 1.156C0.25446 1.18511 0.200272 1.14561 0.215272 1.09791L0.331772 0.729246L0.0212096 0.499498C-0.0189778 0.4697 0.00171004 0.405909 0.0517099 0.405471L0.437772 0.402529L0.559896 0.0356829C0.575646 -0.0118944 0.642646 -0.0118944 0.658521 0.0356829Z" transform="translate(12.7876 8.90723)" fill="#F5F5F5"/>
</svg>
